<?xml version="1.0" encoding="utf-8"?>
<!-- Generator: Adobe Illustrator 17.0.0, SVG Export Plug-In . SVG Version: 6.00 Build 0)  -->
<!DOCTYPE svg PUBLIC "-//W3C//DTD SVG 1.1//EN" "http://www.w3.org/Graphics/SVG/1.1/DTD/svg11.dtd">
<svg version="1.1" id="Layer_2" xmlns="http://www.w3.org/2000/svg" xmlns:xlink="http://www.w3.org/1999/xlink" x="0px" y="0px"
	 width="119.99px" height="63.835px" viewBox="0 0 119.99 63.835" enable-background="new 0 0 119.99 63.835" xml:space="preserve">
<path fill="#218099" d="M4.833,50.083c0.706-1.65,14.667-33.833,15.333-35.5c0.667-1.667-0.667-2.417-1.25-0.833
	c-0.583,1.583-17.083,37.75-18,39.833C0,55.667,0,57.083,3.583,57.083s49.417,0,49.417,0V60h11.667v-3.167c0,0,48.333,0,50.083,0
	s3.333-0.333,1.833-3.5c-1.5-3.167-17-37.417-17.75-39.25S96.667,13,97.25,14.417s15,34.333,15.583,35.917
	c0.583,1.583,1.333,4.083-5.417,4.083c-9.083,0-25-6.333-31.917-6.333S62.086,52.167,58.793,56.5
	c-3.293-3.083-7.46-8.417-16.377-8.417s-20.25,6.25-31.833,6.25C6.25,54.333,3.185,53.936,4.833,50.083z"/>
<path fill="#218099" d="M107.75,45.75c-1.333-3.583-14.417-37.917-14.417-37.917S92.083,8.25,89.5,8.25
	c-8.417,0-17.917-5.583-21.667-5.583c-3.917,0-9.04,4.333-9.04,4.333S52.833,2.667,50,2.667c-5.25,0-12.083,5.5-22.333,5.5
	c-2.25,0-3.583-0.333-3.583-0.333S10.167,44.667,9.167,47.167s-1.001,4.167,2.75,4.167c9,0,25.25-8.167,30.333-8.167
	c9.333,0,16.543,10.5,16.543,10.5S66.75,43.25,75.25,43.25s20,8.25,30.583,8.25C109.083,51.5,109.083,49.333,107.75,45.75z M56.5,45
	c0,0-4.5-5.5-13.333-5.5c-9.167,0-22.833,8-26.667,8c-2.167,0-3.417-0.5-2.5-3.583c0.917-3.083,11.917-32.5,11.917-32.5
	s1.585,0.167,3.833,0.167c10.25,0,14-4.75,20-4.75c4.083,0,6.25,2.333,6.75,4V45z M101.24,47.5c-3.833,0-17.5-8-26.667-8
	C65.74,39.5,61.24,45,61.24,45V10.833c0.5-1.667,2.667-4,6.75-4c6,0,9.75,4.75,20,4.75c2.248,0,3.833-0.167,3.833-0.167
	s11,29.417,11.917,32.5C104.657,47,103.407,47.5,101.24,47.5z"/>
</svg>
