<?xml version="1.0" encoding="iso-8859-1"?>
<!-- Generator: Adobe Illustrator 19.0.0, SVG Export Plug-In . SVG Version: 6.00 Build 0)  -->
<svg version="1.1" id="Layer_1" xmlns="http://www.w3.org/2000/svg" xmlns:xlink="http://www.w3.org/1999/xlink" x="0px" y="0px"
	 viewBox="0 0 512.002 512.002" style="enable-background:new 0 0 512.002 512.002;" xml:space="preserve">
<g>
	<path style="fill:#2D404E;" d="M255.173,488c-25.777,0-47.042-13.8-54.262-33.333c-25.545-10.69-61.154-20.844-104.261-20.844
		c-18.784,0-37.814,1.989-56.562,5.912L0,448.124V69.001l33.273-43.415C34.589,25.384,179.267,72.354,256,122.977
		c76.732-50.623,221.41-97.592,222.727-97.391l33.143,43.138l0.131,379.4l-40.088-8.389c-18.746-3.922-37.775-5.912-56.561-5.912
		c-45.254,0-82.409,11.582-106.252,21.717C301.578,474.611,280.564,488,255.173,488z"/>
	<path style="fill:#253744;" d="M33.275,25.587l-11.611,15.15v382.347c0,0,27.983-17.191,96.748-12.755
		s107.122,28.375,107.122,28.375s-2.589,27.635,30.468,27.635V112.257L33.275,25.587z"/>
	<path style="fill:#253744;" d="M478.728,25.587l11.611,15.15v382.347c0,0-27.983-17.191-96.748-12.755
		s-107.122,28.375-107.122,28.375s2.589,27.635-30.468,27.635V112.257L478.728,25.587z"/>
	<path style="fill:#D1D5D5;" d="M256.002,413.119v41.608c13.049,0,23.628-6.652,23.628-14.86v-11.888
		C279.63,419.771,269.05,413.119,256.002,413.119z"/>
	<path style="opacity:0.7;fill:#C6CBCB;enable-background:new    ;" d="M232.374,427.979v11.888c0,8.208,10.575,14.86,23.628,14.86
		v-41.608C242.949,413.119,232.374,419.771,232.374,427.979z"/>
	<path style="fill:#C6CBCB;" d="M256.002,90.163v356.146c0,0-91.804-66.539-222.727-39.141V25.587
		C33.275,25.587,148.479,7.975,256.002,90.163z"/>
	<path style="fill:#E2E5E7;" d="M256.002,90.163v356.146c0,0,91.805-66.539,222.727-39.141V25.587
		C478.728,25.587,363.524,7.975,256.002,90.163z"/>
	<path style="opacity:0.7;fill:#E2E5E7;enable-background:new    ;" d="M43.455,41.075V382.68c0,0,65.438-9.982,125.329,12.2
		c0,0-31.055-28.837-92.056-42.146L63.235,41.075H43.455L43.455,41.075z"/>
	<polygon style="opacity:0.6;fill:#253744;enable-background:new    ;" points="0.002,69.001 0.002,448.125 33.275,407.168 
		33.275,25.587 	"/>
	<polygon style="opacity:0.6;fill:#253744;enable-background:new    ;" points="512.002,69.001 512.002,448.125 478.728,407.168 
		478.728,25.587 	"/>
</g>
<g>
</g>
<g>
</g>
<g>
</g>
<g>
</g>
<g>
</g>
<g>
</g>
<g>
</g>
<g>
</g>
<g>
</g>
<g>
</g>
<g>
</g>
<g>
</g>
<g>
</g>
<g>
</g>
<g>
</g>
</svg>
